<svg width="20" height="20" viewBox="0 0 20 20" fill="none" xmlns="http://www.w3.org/2000/svg">
<path fill-rule="evenodd" clip-rule="evenodd" d="M3.74805 6.68781C4.09322 6.68781 4.37305 6.96763 4.37305 7.31281V14.542C4.37305 15.6068 5.23647 16.4702 6.30129 16.4702H13.7007C14.7656 16.4702 15.629 15.6068 15.629 14.542V7.31281C15.629 6.96763 15.9088 6.68781 16.254 6.68781C16.5992 6.68781 16.879 6.96763 16.879 7.31281V14.542C16.879 16.2971 15.4559 17.7202 13.7007 17.7202H6.30129C4.54611 17.7202 3.12305 16.2971 3.12305 14.542V7.31281C3.12305 6.96763 3.40287 6.68781 3.74805 6.68781Z" fill="#2B303B"/>
<path fill-rule="evenodd" clip-rule="evenodd" d="M8.38408 2.84187C9.33125 2.09308 10.6688 2.09308 11.616 2.84187L17.8879 7.80672C18.1586 8.02096 18.2043 8.414 17.9901 8.68467C17.7758 8.95533 17.3827 9.00108 17.1121 8.78683L10.8408 3.82247C10.8407 3.82238 10.8409 3.82255 10.8408 3.82247C10.3481 3.43316 9.65208 3.43296 9.15933 3.82238C9.15933 3.8224 9.15942 3.82234 9.15933 3.82238L2.88794 8.78683C2.6173 9.00108 2.22422 8.95533 2.00998 8.68467C1.79574 8.414 1.84146 8.02096 2.11211 7.80672L8.38408 2.84187Z" fill="#2B303B"/>
<path fill-rule="evenodd" clip-rule="evenodd" d="M14.7227 3.49445C15.0678 3.49445 15.3477 3.77427 15.3477 4.11945V6.08071C15.3477 6.42589 15.0678 6.70571 14.7227 6.70571C14.3775 6.70571 14.0977 6.42589 14.0977 6.08071V4.11945C14.0977 3.77427 14.3775 3.49445 14.7227 3.49445Z" fill="#2B303B"/>
<path fill-rule="evenodd" clip-rule="evenodd" d="M9.97931 11.4063H10.0251C10.3391 11.4063 10.6101 11.4062 10.8335 11.4237C11.0691 11.442 11.304 11.4825 11.5317 11.5923C11.9137 11.7766 12.222 12.0848 12.4062 12.4668C12.5161 12.6946 12.5566 12.9294 12.5749 13.1651C12.5923 13.3885 12.5923 13.6594 12.5923 13.9734V17.0952C12.5923 17.4403 12.3125 17.7202 11.9673 17.7202C11.6221 17.7202 11.3423 17.4403 11.3423 17.0952V13.9963C11.3423 13.6529 11.3419 13.4313 11.3287 13.2622C11.3161 13.1 11.2946 13.0393 11.2803 13.0098C11.2189 12.8824 11.1161 12.7797 10.9888 12.7182C10.9592 12.704 10.8986 12.6825 10.7364 12.6698C10.5673 12.6567 10.3456 12.6562 10.0022 12.6562C9.65881 12.6562 9.43706 12.6567 9.26806 12.6698C9.10581 12.6825 9.04523 12.704 9.01564 12.7182C8.88831 12.7797 8.78556 12.8824 8.72414 13.0098C8.70989 13.0393 8.68839 13.1 8.67573 13.2622C8.66256 13.4313 8.66214 13.6529 8.66214 13.9963V17.0952C8.66214 17.4403 8.38231 17.7202 8.03711 17.7202C7.69193 17.7202 7.41211 17.4403 7.41211 17.0952V13.9734C7.41209 13.6594 7.41208 13.3885 7.4295 13.1651C7.44788 12.9294 7.48839 12.6946 7.59821 12.4668C7.78242 12.0848 8.09069 11.7766 8.47273 11.5923C8.70048 11.4825 8.93523 11.442 9.17089 11.4237C9.39439 11.4062 9.66531 11.4063 9.97931 11.4063Z" fill="#2B303B"/>
</svg>
